<svg width="24" height="19" viewBox="0 0 24 19" fill="none" xmlns="http://www.w3.org/2000/svg">
<path d="M23.1572 2.19355C22.2886 2.57072 21.3695 2.81921 20.429 2.93116C21.4174 2.35283 22.1607 1.43404 22.5195 0.347118C21.585 0.893138 20.5644 1.27625 19.5013 1.48005C19.0536 1.01122 18.5152 0.63826 17.9188 0.383828C17.3225 0.129396 16.6805 -0.00118949 16.032 8.16405e-06C13.4066 8.16405e-06 11.2819 2.09231 11.2819 4.67154C11.2801 5.0303 11.3212 5.38799 11.4045 5.73697C9.52182 5.64878 7.67833 5.16886 5.99193 4.32792C4.30553 3.48699 2.81336 2.30355 1.61088 0.853321C1.18902 1.56399 0.965914 2.37484 0.964885 3.20114C0.964885 4.82099 1.81061 6.25282 3.08763 7.09167C2.33103 7.07372 1.58993 6.87361 0.927255 6.50833V6.56618C0.927255 8.83204 2.56756 10.717 4.73855 11.1461C4.3303 11.2549 3.9096 11.31 3.48709 11.31C3.18729 11.3105 2.88818 11.2815 2.59409 11.2232C3.19763 13.0793 4.9542 14.4292 7.03498 14.4678C5.3442 15.7699 3.26836 16.4736 1.13374 16.4685C0.754838 16.4679 0.376289 16.4454 0 16.401C2.17156 17.7866 4.69583 18.5196 7.27234 18.5126C16.0219 18.5126 20.802 11.392 20.802 5.21631C20.802 5.01383 20.7966 4.81134 20.787 4.61368C21.7148 3.9542 22.5174 3.13466 23.1572 2.19355Z" fill="#181818"/>
</svg>
