<svg width="228" height="228" viewBox="0 0 228 228" fill="none" xmlns="http://www.w3.org/2000/svg">
<path d="M77.7455 130.96C75.2122 130.96 73.0205 130.51 71.1705 129.61C69.3372 128.694 67.9205 127.427 66.9205 125.81C65.9372 124.194 65.4455 122.327 65.4455 120.21C65.4455 118.11 65.9622 116.269 66.9955 114.685C68.0288 113.085 69.4622 111.844 71.2955 110.96C73.1455 110.06 75.2955 109.61 77.7455 109.61C80.1955 109.61 82.3455 110.06 84.1955 110.96C86.0455 111.844 87.4788 113.085 88.4955 114.685C89.5288 116.269 90.0455 118.11 90.0455 120.21C90.0455 122.327 89.5455 124.194 88.5455 125.81C87.5455 127.427 86.1205 128.694 84.2705 129.61C82.4372 130.51 80.2622 130.96 77.7455 130.96ZM77.7455 125.46C79.7788 125.46 81.3538 124.944 82.4705 123.91C83.5872 122.877 84.1455 121.51 84.1455 119.81C84.1455 118.21 83.5872 116.885 82.4705 115.835C81.3538 114.785 79.7788 114.26 77.7455 114.26C75.7288 114.26 74.1538 114.785 73.0205 115.835C71.9038 116.885 71.3455 118.21 71.3455 119.81C71.3455 121.51 71.9038 122.877 73.0205 123.91C74.1538 124.944 75.7288 125.46 77.7455 125.46ZM77.7455 113.26C75.7622 113.26 73.9622 112.869 72.3455 112.085C70.7288 111.302 69.4372 110.219 68.4705 108.835C67.5205 107.435 67.0455 105.827 67.0455 104.01C67.0455 102.477 67.4038 100.985 68.1205 99.5355C68.8538 98.0855 70.0038 96.8938 71.5705 95.9605C73.1538 95.0272 75.2122 94.5605 77.7455 94.5605C80.2788 94.5605 82.3122 95.0272 83.8455 95.9605C85.3955 96.8938 86.5122 98.0855 87.1955 99.5355C87.8955 100.985 88.2455 102.477 88.2455 104.01C88.2455 105.827 87.8122 107.435 86.9455 108.835C86.0955 110.219 84.8788 111.302 83.2955 112.085C81.7288 112.869 79.8788 113.26 77.7455 113.26ZM77.7455 108.61C79.3788 108.61 80.6038 108.169 81.4205 107.285C82.2372 106.385 82.6455 105.31 82.6455 104.06C82.6455 102.727 82.2372 101.644 81.4205 100.81C80.6038 99.9772 79.3788 99.5605 77.7455 99.5605C76.1288 99.5605 74.8705 99.9772 73.9705 100.81C73.0872 101.644 72.6455 102.727 72.6455 104.06C72.6455 105.31 73.0872 106.385 73.9705 107.285C74.8705 108.169 76.1288 108.61 77.7455 108.61ZM104.871 130.91C102.955 130.91 101.196 130.66 99.5963 130.16C97.9963 129.66 96.5546 128.977 95.2713 128.11L96.7713 122.31C98.0046 123.077 99.2546 123.702 100.521 124.185C101.805 124.669 103.221 124.91 104.771 124.91C106.671 124.91 108.18 124.41 109.296 123.41C110.413 122.41 110.971 121.06 110.971 119.36C110.971 117.527 110.338 116.094 109.071 115.06C107.805 114.027 105.971 113.51 103.571 113.51C102.471 113.51 101.371 113.577 100.271 113.71C99.188 113.844 98.1046 114.01 97.0213 114.21L99.2713 95.2605H115.771L115.371 101.46H104.071L102.871 111.16L100.471 108.96C101.271 108.727 102.105 108.552 102.971 108.435C103.855 108.319 104.805 108.26 105.821 108.26C108.055 108.26 110.021 108.702 111.721 109.585C113.438 110.452 114.771 111.719 115.721 113.385C116.688 115.035 117.171 117.027 117.171 119.36C117.171 121.76 116.638 123.827 115.571 125.56C114.521 127.277 113.071 128.602 111.221 129.535C109.371 130.452 107.255 130.91 104.871 130.91ZM130.527 114.56C128.71 114.56 127.16 114.127 125.877 113.26C124.61 112.377 123.643 111.177 122.977 109.66C122.31 108.127 121.977 106.377 121.977 104.41C121.977 101.427 122.76 99.0438 124.327 97.2605C125.893 95.4605 127.96 94.5605 130.527 94.5605C133.11 94.5605 135.177 95.4605 136.727 97.2605C138.293 99.0438 139.077 101.427 139.077 104.41C139.077 106.377 138.735 108.127 138.052 109.66C137.385 111.177 136.41 112.377 135.127 113.26C133.86 114.127 132.327 114.56 130.527 114.56ZM130.527 110.21C131.627 110.21 132.477 109.71 133.077 108.71C133.677 107.694 133.977 106.26 133.977 104.41C133.977 102.56 133.66 101.185 133.027 100.285C132.41 99.3688 131.577 98.9105 130.527 98.9105C129.477 98.9105 128.635 99.3688 128.002 100.285C127.385 101.185 127.077 102.56 127.077 104.41C127.077 106.26 127.36 107.694 127.927 108.71C128.493 109.71 129.36 110.21 130.527 110.21ZM129.877 130.26L150.527 95.2605H155.477L134.877 130.26H129.877ZM154.777 130.96C152.96 130.96 151.41 130.527 150.127 129.66C148.86 128.777 147.893 127.577 147.227 126.06C146.56 124.527 146.227 122.777 146.227 120.81C146.227 117.827 147.01 115.444 148.577 113.66C150.143 111.86 152.21 110.96 154.777 110.96C157.36 110.96 159.427 111.86 160.977 113.66C162.543 115.444 163.327 117.827 163.327 120.81C163.327 122.777 162.985 124.527 162.302 126.06C161.635 127.577 160.66 128.777 159.377 129.66C158.11 130.527 156.577 130.96 154.777 130.96ZM154.777 126.61C155.877 126.61 156.727 126.11 157.327 125.11C157.927 124.094 158.227 122.66 158.227 120.81C158.227 118.96 157.91 117.585 157.277 116.685C156.66 115.769 155.827 115.31 154.777 115.31C153.727 115.31 152.885 115.769 152.252 116.685C151.635 117.585 151.327 118.96 151.327 120.81C151.327 122.66 151.61 124.094 152.177 125.11C152.743 126.11 153.61 126.61 154.777 126.61Z" fill="#181818"/>
<path d="M89.7677 24.0531C139.345 10.7689 190.304 40.1903 203.588 89.7675C216.873 139.345 187.451 190.304 137.874 203.588C88.2967 216.872 37.3375 187.451 24.0533 137.874C10.7691 88.2966 40.1905 37.3373 89.7677 24.0531ZM136.461 198.316C183.127 185.812 210.821 137.846 198.317 91.1801C185.813 44.5144 137.846 16.8209 91.1803 29.3249C44.5146 41.829 16.821 89.7955 29.3251 136.461C41.8291 183.127 89.7957 210.82 136.461 198.316Z" fill="#DAAE3C"/>
<path d="M108.582 23.7676C108.494 22.2631 109.643 20.9682 111.15 20.9248C131.009 20.3535 150.556 26.1627 166.902 37.5376C183.997 49.4327 196.6 66.7249 202.691 86.64C208.782 106.555 208.008 127.939 200.491 147.361C192.975 166.783 179.153 183.118 161.243 193.745C143.333 204.372 122.372 208.675 101.723 205.964C81.0748 203.253 61.9352 193.685 47.3749 178.795C32.8146 163.905 23.6776 144.556 21.4297 123.852C19.28 104.054 23.549 84.1134 33.5675 66.9574C34.3275 65.6559 36.0147 65.2678 37.2933 66.0657C38.5719 66.8636 38.9575 68.5451 38.1998 69.848C28.8275 85.9653 24.8379 104.681 26.8555 123.263C28.9715 142.751 37.5719 160.964 51.2771 174.98C64.9823 188.995 82.9979 198.001 102.434 200.553C121.87 203.105 141.6 199.054 158.458 189.051C175.317 179.048 188.327 163.673 195.402 145.391C202.476 127.11 203.206 106.982 197.472 88.2363C191.739 69.4907 179.876 53.2141 163.785 42.0175C148.442 31.3412 130.104 25.8739 111.467 26.3759C109.96 26.4165 108.669 25.2722 108.582 23.7676Z" fill="white"/>
<g filter="url(#filter0_d_5_10977)">
<circle cx="42.166" cy="61.7156" r="15" fill="#181818"/>
<circle cx="42.166" cy="61.7156" r="12.5" stroke="white" stroke-width="5"/>
</g>
<defs>
<filter id="filter0_d_5_10977" x="19.166" y="46.7156" width="46" height="46" filterUnits="userSpaceOnUse" color-interpolation-filters="sRGB">
<feFlood flood-opacity="0" result="BackgroundImageFix"/>
<feColorMatrix in="SourceAlpha" type="matrix" values="0 0 0 0 0 0 0 0 0 0 0 0 0 0 0 0 0 0 127 0" result="hardAlpha"/>
<feOffset dy="8"/>
<feGaussianBlur stdDeviation="4"/>
<feComposite in2="hardAlpha" operator="out"/>
<feColorMatrix type="matrix" values="0 0 0 0 0.9625 0 0 0 0 0.919283 0 0 0 0 0.810104 0 0 0 1 0"/>
<feBlend mode="multiply" in2="BackgroundImageFix" result="effect1_dropShadow_5_10977"/>
<feBlend mode="normal" in="SourceGraphic" in2="effect1_dropShadow_5_10977" result="shape"/>
</filter>
</defs>
</svg>
