<svg width="56" height="56" viewBox="0 0 56 56" fill="none" xmlns="http://www.w3.org/2000/svg">
<path d="M48.5361 38.4173V17.0527C48.5344 16.7441 48.4514 16.4414 48.2954 16.1751C48.1395 15.9088 47.916 15.6883 47.6477 15.5359L28.5799 4.81029C28.323 4.66196 28.0315 4.58386 27.7348 4.58386C27.4382 4.58386 27.1467 4.66196 26.8898 4.81029L7.82198 15.5359C7.55362 15.6883 7.33019 15.9088 7.17422 16.1751C7.01825 16.4414 6.93525 16.7441 6.93359 17.0527V38.4173C6.93525 38.7259 7.01825 39.0286 7.17422 39.2949C7.33019 39.5612 7.55362 39.7817 7.82198 39.9341L26.8898 50.6597C27.1467 50.808 27.4382 50.8861 27.7348 50.8861C28.0315 50.8861 28.323 50.808 28.5799 50.6597L47.6477 39.9341C47.916 39.7817 48.1395 39.5612 48.2954 39.2949C48.4514 39.0286 48.5344 38.7259 48.5361 38.4173V38.4173Z" stroke="#4EAF4E" stroke-width="2" stroke-linecap="round" stroke-linejoin="round"/>
<path d="M38.3529 33.0437V21.7763L17.335 10.184" stroke="#4EAF4E" stroke-width="2" stroke-linecap="round" stroke-linejoin="round"/>
<path d="M48.2977 16.1643L27.9298 27.735L7.17188 16.1643" stroke="#4EAF4E" stroke-width="2" stroke-linecap="round" stroke-linejoin="round"/>
<path d="M27.9304 27.735L27.7354 50.8764" stroke="#4EAF4E" stroke-width="2" stroke-linecap="round" stroke-linejoin="round"/>
</svg>
